<svg xmlns="http://www.w3.org/2000/svg" viewBox="0 0 100 100" fill="none" stroke="#7ac5e0" stroke-width="4" stroke-linecap="round" stroke-linejoin="round">
  <!-- Center Arrow -->
  <path d="M50 35 L50 65" />
  <path d="M42 45 L50 35 L58 45" />
  
  <!-- Hexagon outline with triangles -->
  <polygon points="50,25 71.65,37.5 71.65,62.5 50,75 28.35,62.5 28.35,37.5" />
  <polygon points="50,25 71.65,37.5 50,50" />
  <polygon points="71.65,37.5 71.65,62.5 50,50" />
  <polygon points="71.65,62.5 50,75 50,50" />
  <polygon points="50,75 28.35,62.5 50,50" />
  <polygon points="28.35,62.5 28.35,37.5 50,50" />
  <polygon points="28.35,37.5 50,25 50,50" />
  
  <!-- The 6 outer stems -->
  <path d="M50 25 L50 10" />
  <path d="M40 15 L50 25 L60 15" />
  
  <path d="M71.65 37.5 L84.64 30" />
  <path d="M82.14 20 L71.65 37.5 L87.14 45" />

  <path d="M71.65 62.5 L84.64 70" />
  <path d="M87.14 55 L71.65 62.5 L82.14 80" />
  
  <path d="M50 75 L50 90" />
  <path d="M40 85 L50 75 L60 85" />
  
  <path d="M28.35 62.5 L15.36 70" />
  <path d="M12.86 55 L28.35 62.5 L17.86 80" />
  
  <path d="M28.35 37.5 L15.36 30" />
  <path d="M17.86 20 L28.35 37.5 L12.86 45" />
  
  <!-- Nodes (Dots) -->
  <circle cx="50" cy="25" r="4" fill="#7ac5e0" stroke="none" />
  <circle cx="71.65" cy="37.5" r="4" fill="#7ac5e0" stroke="none" />
  <circle cx="71.65" cy="62.5" r="4" fill="#7ac5e0" stroke="none" />
  <circle cx="50" cy="75" r="4" fill="#7ac5e0" stroke="none" />
  <circle cx="28.35" cy="62.5" r="4" fill="#7ac5e0" stroke="none" />
  <circle cx="28.35" cy="37.5" r="4" fill="#7ac5e0" stroke="none" />
  <circle cx="50" cy="50" r="8" fill="#fff" stroke="none" />
  <path d="M50 35 L50 65" />
  <path d="M42 45 L50 35 L58 45" />
</svg>
